<?xml version="1.0" encoding="iso-8859-1"?>
<!-- Generator: Adobe Illustrator 18.1.1, SVG Export Plug-In . SVG Version: 6.00 Build 0)  -->
<svg version="1.1" id="Capa_1" xmlns="http://www.w3.org/2000/svg" xmlns:xlink="http://www.w3.org/1999/xlink" x="0px" y="0px"
	 viewBox="0 0 612 612" style="enable-background:new 0 0 612 612;" xml:space="preserve">
<g>
	<g id="Plug">
		<path d="M387.184,12.49c0-6.898-5.592-12.49-12.49-12.49s-12.49,5.592-12.49,12.49c0,36.636,0,73.274,0,109.91
			c8.327,0,16.653,0,24.98,0C387.184,85.764,387.184,49.126,387.184,12.49z"/>
		<path d="M249.796,12.49c0-6.898-5.592-12.49-12.49-12.49c-6.898,0-12.49,5.592-12.49,12.49c0,36.636,0,73.274,0,109.91
			c8.327,0,16.653,0,24.98,0C249.796,85.764,249.796,49.126,249.796,12.49z"/>
		<path d="M142.384,134.89c0,8.327,0,16.653,0,24.98c6.661,0,13.323,0,19.984,0c0,24.98,0,49.959,0,74.939
			c0,79.326,64.306,143.633,143.633,143.633s143.633-64.306,143.633-143.633c0-24.98,0-49.959,0-74.939c6.661,0,13.323,0,19.984,0
			c0-8.327,0-16.653,0-24.98C360.539,134.89,251.461,134.89,142.384,134.89z"/>
		<path d="M293.51,390.43c0,73.857,0,147.713,0,221.57c8.327,0,16.653,0,24.98,0c0-73.857,0-147.713,0-221.57
			C310.137,391.1,301.863,391.1,293.51,390.43z"/>
	</g>
</g>
<g>
</g>
<g>
</g>
<g>
</g>
<g>
</g>
<g>
</g>
<g>
</g>
<g>
</g>
<g>
</g>
<g>
</g>
<g>
</g>
<g>
</g>
<g>
</g>
<g>
</g>
<g>
</g>
<g>
</g>
</svg>
