<?xml version="1.0" encoding="utf-8"?>
<svg width="12px" height="15px" viewBox="0 0 12 15" version="1.1" xmlns:xlink="http://www.w3.org/1999/xlink" xmlns="http://www.w3.org/2000/svg">
  <desc>Created with Lunacy</desc>
  <g id="lock-1">
    <path d="M10.1416 5.92895L10.6097 5.92895C11.2991 5.92895 11.8579 6.48779 11.8579 7.17715L11.8579 13.7302C11.8579 14.4196 11.2991 14.9784 10.6097 14.9784L1.2482 14.9784C0.558838 14.9784 0 14.4196 0 13.7302L0 7.17715C0 6.48779 0.558838 5.92895 1.2482 5.92895L1.71627 5.92895L1.71627 4.21267C1.71627 1.88608 3.60235 0 5.92895 0C8.25555 0 10.1416 1.88608 10.1416 4.21267L10.1416 5.92895ZM5.92879 1.5603C4.4639 1.5603 3.27637 2.74783 3.27637 4.21273L3.27637 5.61695C3.27637 5.78929 3.41608 5.929 3.58842 5.929L8.26917 5.929C8.44151 5.929 8.58122 5.78929 8.58122 5.61695L8.58122 4.21273C8.58122 2.74783 7.39369 1.5603 5.92879 1.5603ZM4.68068 9.67352C4.67794 9.06707 5.11149 8.54641 5.70841 8.4393C6.30533 8.33219 6.89286 8.66963 7.10114 9.23919C7.30942 9.80875 7.07818 10.4456 6.55298 10.7488L6.55298 12.1699C6.55298 12.5146 6.27356 12.794 5.92888 12.794C5.5842 12.794 5.30478 12.5146 5.30478 12.1699L5.30478 10.7488C4.91976 10.5274 4.68192 10.1176 4.68068 9.67352Z" id="Shape" fill="#1665D8" fill-rule="evenodd" stroke="none" />
  </g>
</svg>